<?xml version="1.0" encoding="utf-8"?>
<!-- Generator: Adobe Illustrator 22.1.0, SVG Export Plug-In . SVG Version: 6.00 Build 0)  -->
<svg version="1.1" id="Capa_1" xmlns="http://www.w3.org/2000/svg" xmlns:xlink="http://www.w3.org/1999/xlink" x="0px" y="0px"
	 viewBox="0 0 427 427" style="enable-background:new 0 0 427 427;" xml:space="preserve">
<g>
	<g>
		<path d="M272.8,103.8c-4.2,0-7.6,3.4-7.6,7.6v20.3c0,7.9-6.4,14.3-14.3,14.3H143.1c-4.2,0-7.6,3.4-7.6,7.6v19.7l-22.1-24.7
			c-1.4-1.6-3.5-2.6-5.7-2.6h-48c-7.9,0-14.3-6.4-14.3-14.3V35.2c0-7.9,6.4-14.3,14.3-14.3h191.1c7.9,0,14.3,6.4,14.3,14.3V87
			c0,4.2,3.4,7.6,7.6,7.6s7.6-3.4,7.6-7.6V35.2c0-16.3-13.3-29.6-29.6-29.6H59.8c-16.3,0-29.6,13.3-29.6,29.6v96.5
			c0,16.3,13.3,29.6,29.6,29.6h44.5l33.1,37.1c1.5,1.7,3.6,2.6,5.7,2.6c0.9,0,1.8-0.2,2.7-0.5c3-1.1,4.9-4,4.9-7.1v-32h100.1
			c16.3,0,29.6-13.3,29.6-29.6v-20.3C280.5,107.2,277,103.8,272.8,103.8z"/>
	</g>
</g>
<g>
	<g>
		<path d="M233.1,44.2h-86c-4.2,0-7.6,3.4-7.6,7.6c0,4.2,3.4,7.6,7.6,7.6h86c4.2,0,7.6-3.4,7.6-7.6
			C240.8,47.7,237.4,44.2,233.1,44.2z"/>
	</g>
</g>
<g>
	<g>
		<path d="M121.7,44.2H77.5c-4.2,0-7.6,3.4-7.6,7.6c0,4.2,3.4,7.6,7.6,7.6h44.2c4.2,0,7.6-3.4,7.6-7.6
			C129.3,47.7,125.9,44.2,121.7,44.2z"/>
	</g>
</g>
<g>
	<g>
		<path d="M233.1,75.5h-26.5c-4.2,0-7.6,3.4-7.6,7.6s3.4,7.6,7.6,7.6h26.5c4.2,0,7.6-3.4,7.6-7.6S237.4,75.5,233.1,75.5z"/>
	</g>
</g>
<g>
	<g>
		<path d="M181.2,75.5H77.5c-4.2,0-7.6,3.4-7.6,7.6s3.4,7.6,7.6,7.6h103.7c4.2,0,7.6-3.4,7.6-7.6S185.4,75.5,181.2,75.5z"/>
	</g>
</g>
<g>
	<g>
		<path d="M185.8,106.8H77.5c-4.2,0-7.6,3.4-7.6,7.6s3.4,7.6,7.6,7.6h108.3c4.2,0,7.6-3.4,7.6-7.6S190,106.8,185.8,106.8z"/>
	</g>
</g>
<g>
	<g>
		<path d="M264.3,257.8c-4.2,0-7.6,3.4-7.6,7.6v11.8c0,4.2,3.4,7.6,7.6,7.6c4.2,0,7.6-3.4,7.6-7.6v-11.8
			C272,261.2,268.6,257.8,264.3,257.8z"/>
	</g>
</g>
<g>
	<g>
		<path d="M233.6,257.8c-4.2,0-7.6,3.4-7.6,7.6v11.8c0,4.2,3.4,7.6,7.6,7.6s7.6-3.4,7.6-7.6v-11.8
			C241.2,261.2,237.8,257.8,233.6,257.8z"/>
	</g>
</g>
<g>
	<g>
		<path d="M294.1,307.4c-3.7-2.1-8.3-0.8-10.4,2.8c-4.5,7.9-12.3,12.2-23,12.8c-4.2,0.2-7.4,3.8-7.2,8c0.2,4.1,3.6,7.2,7.6,7.2
			c0.1,0,0.3,0,0.4,0c16.1-0.9,28.3-7.9,35.5-20.4C299.1,314.2,297.8,309.5,294.1,307.4z"/>
	</g>
</g>
<g>
	<g>
		<path d="M399.4,265.5c-6-42.7-23.1-70.8-52.1-85.7c-25.7-13.2-57.2-14.4-87.3-14.4c-26.7,0-45.8,7.3-56.7,21.6
			c-13.6,17.8-9.6,39.9-7.3,48.6c0.9,3.2,3.7,5.5,7.1,5.6c0.4,0,8.7,0.3,18.7-1.1c10.1-1.4,18.4-3.9,24.6-7.5
			c16.2,17.5,35.3,22.3,49,23.1c7.3,0.4,13.8-0.2,18.7-1.1v11c0,3.1,1.9,5.9,4.7,7c2.9,1.2,6.1,0.5,8.3-1.7
			c4.3-4.3,10.8-5.7,16.4-3.5c2,0.8,3.8,1.9,5.4,3.5c2.9,2.9,4.5,6.8,4.5,10.9c0,4.1-1.6,8-4.5,10.9c-1.7,1.7-3.6,2.9-5.8,3.7
			c-2.7,0.9-4.6,3.3-5,6.2c-4.3,31.4-31.5,55.1-63.2,55.1c-35.2,0-63.8-28.6-63.8-63.8v-34.5c0-4.2-3.4-7.6-7.6-7.6
			s-7.6,3.4-7.6,7.6V294c0,43.6,35.5,79.1,79.1,79.1c37.9,0,70.5-27.2,77.6-64c2.6-1.4,5.1-3.2,7.2-5.4c5.8-5.8,9-13.5,9-21.7
			c0-8.2-3.2-15.9-9-21.7c-3.1-3.1-6.7-5.4-10.7-7c-6.4-2.5-13.3-2.6-19.7-0.8V245c0-2.5-1.2-4.8-3.2-6.2c-2-1.4-4.6-1.8-7-1
			c-1.6,0.6-39.7,13.4-65.6-20.2c-1.3-1.7-3.4-2.8-5.6-3c-2.2-0.1-4.3,0.7-5.9,2.2c-6.2,6.2-21.4,8.7-32.7,9.1
			c-2.7-16.1,3.1-26,5.9-29.7c7.9-10.3,22.9-15.6,44.6-15.6c28.2,0,57.7,1,80.3,12.7c24.3,12.5,38.7,36.8,44,74.3
			c7.2,50.8-8.5,102.2-26.6,135.8c-7.6-4.8-20.7-15.4-26.5-33.7c-1.3-4-5.6-6.2-9.6-5c-4,1.3-6.2,5.6-5,9.6
			c10.6,33.6,39.8,45.9,41.1,46.4c0.9,0.4,1.9,0.6,2.9,0.6c2.6,0,5.2-1.4,6.6-3.8C388.2,382.2,407.6,323.6,399.4,265.5z"/>
	</g>
</g>
</svg>
