<?xml version="1.0" encoding="iso-8859-1"?>
<!-- Generator: Adobe Illustrator 19.0.0, SVG Export Plug-In . SVG Version: 6.00 Build 0)  -->
<svg version="1.1" id="Capa_1" xmlns="http://www.w3.org/2000/svg" xmlns:xlink="http://www.w3.org/1999/xlink" x="0px" y="0px"
	 viewBox="0 0 511.77 511.77" style="enable-background:new 0 0 511.77 511.77;" xml:space="preserve">
<g>
	<g>
		<path d="M463.267,443.692l-25.332-168.907c-3.687-23.642-26.168-42.883-50.103-42.883H123.953
			c-23.934,0-46.416,19.241-50.11,42.914l-25.34,168.845c-1.819,11.682,1.125,22.739,8.309,31.127
			c7.177,8.387,17.633,12.993,29.456,12.993h339.235c11.823,0,22.279-4.607,29.455-12.993
			C462.142,466.4,465.086,455.342,463.267,443.692z M448.884,469.586c-5.631,6.575-13.932,10.198-23.381,10.198H86.268
			c-9.449,0-17.75-3.623-23.38-10.198c-5.638-6.575-7.941-15.353-6.481-24.707l25.34-168.861
			c3.115-19.916,22.044-36.12,42.207-36.12v0h263.879c20.163,0,39.092,16.204,42.199,36.104l25.332,168.893
			C456.825,454.233,454.522,463.011,448.884,469.586z"/>
	</g>
</g>
<g>
	<g>
		<path d="M459.916,471.788c-2.139,0.219-4.06,1.64-4.162,3.842c-0.655,16.306-13.377,28.144-30.252,28.144H86.267
			c-16.875,0-29.595-11.838-30.251-28.144c-0.094-2.202-1.851-3.639-4.162-3.842c-2.202,0.094-3.92,1.952-3.834,4.17
			c0.843,20.756,16.93,35.812,38.248,35.812h339.235c21.319,0,37.405-15.056,38.247-35.812
			C463.836,473.74,462.118,471.882,459.916,471.788z"/>
	</g>
</g>
<g>
	<g>
		<path d="M135.948,319.858c-8.964,0-15.992,5.279-15.992,11.994c0,6.731,7.028,11.995,15.992,11.995
			c8.965,0,15.994-5.264,15.993-11.995C151.941,325.137,144.913,319.858,135.948,319.858z M135.948,335.85
			c-4.88,0-7.996-2.357-7.996-3.998c0-1.624,3.116-3.998,7.996-3.998c4.881,0,7.997,2.374,7.997,3.998
			C143.945,333.493,140.829,335.85,135.948,335.85z"/>
	</g>
</g>
<g>
	<g>
		<path d="M155.94,351.843c-8.965,0-15.993,5.278-15.993,11.995c0,6.73,7.028,11.994,15.993,11.994
			c8.965,0,15.992-5.263,15.993-11.994C171.933,357.121,164.905,351.843,155.94,351.843z M155.94,367.836
			c-4.881,0-7.996-2.358-7.996-3.998c0-1.625,3.115-3.999,7.996-3.999c4.88,0,7.996,2.374,7.996,3.999
			C163.936,365.478,160.82,367.836,155.94,367.836z"/>
	</g>
</g>
<g>
	<g>
		<path d="M195.921,351.843c-8.965,0-15.992,5.278-15.992,11.995c0,6.73,7.027,11.994,15.992,11.994
			c8.965,0,15.993-5.263,15.993-11.994C211.914,357.121,204.886,351.843,195.921,351.843z M195.921,367.836
			c-4.88,0-7.996-2.358-7.996-3.998c0-1.625,3.116-3.999,7.996-3.999c4.881,0,7.997,2.374,7.997,3.999
			C203.918,365.478,200.802,367.836,195.921,367.836z"/>
	</g>
</g>
<g>
	<g>
		<path d="M235.903,351.843c-8.965,0-15.993,5.278-15.993,11.995c0,6.73,7.028,11.994,15.993,11.994
			c8.964,0,15.993-5.263,15.993-11.994C251.896,357.121,244.867,351.843,235.903,351.843z M235.903,367.836
			c-4.881,0-7.997-2.358-7.997-3.998c0-1.625,3.117-3.999,7.997-3.999s7.997,2.374,7.997,3.999
			C243.9,365.478,240.784,367.836,235.903,367.836z"/>
	</g>
</g>
<g>
	<g>
		<path d="M275.885,351.843c-8.965,0-15.993,5.278-15.993,11.995c0,6.73,7.028,11.994,15.993,11.994
			c8.964,0,15.992-5.263,15.992-11.994C291.877,357.121,284.849,351.843,275.885,351.843z M275.885,367.836
			c-4.881,0-7.997-2.358-7.997-3.998c0-1.625,3.116-3.999,7.997-3.999c4.88,0,7.996,2.374,7.996,3.999
			C283.881,365.478,280.765,367.836,275.885,367.836z"/>
	</g>
</g>
<g>
	<g>
		<path d="M315.866,351.843c-8.965,0-15.992,5.278-15.992,11.995c0,6.73,7.027,11.994,15.992,11.994
			c8.965,0,15.993-5.263,15.992-11.994C331.858,357.121,324.831,351.843,315.866,351.843z M315.866,367.836
			c-4.881,0-7.996-2.358-7.996-3.998c0-1.625,3.115-3.999,7.996-3.999c4.881,0,7.997,2.374,7.996,3.999
			C323.862,365.478,320.747,367.836,315.866,367.836z"/>
	</g>
</g>
<g>
	<g>
		<path d="M355.848,351.843c-8.964,0-15.992,5.278-15.992,11.995c0,6.73,7.028,11.994,15.992,11.994
			c8.965,0,15.993-5.263,15.993-11.994C371.841,357.121,364.813,351.843,355.848,351.843z M355.848,367.836
			c-4.88,0-7.996-2.358-7.996-3.998c0-1.625,3.116-3.999,7.996-3.999c4.881,0,7.997,2.374,7.997,3.999
			C363.845,365.478,360.729,367.836,355.848,367.836z"/>
	</g>
</g>
<g>
	<g>
		<path d="M395.829,351.843c-8.964,0-15.992,5.278-15.992,11.995c0,6.73,7.028,11.994,15.992,11.994
			c8.965,0,15.994-5.263,15.993-11.994C411.822,357.121,404.794,351.843,395.829,351.843z M395.829,367.836
			c-4.88,0-7.996-2.358-7.996-3.998c0-1.625,3.116-3.999,7.996-3.999c4.881,0,7.997,2.374,7.997,3.999
			C403.826,365.478,400.71,367.836,395.829,367.836z"/>
	</g>
</g>
<g>
	<g>
		<path d="M115.958,351.843c-8.965,0-15.993,5.278-15.993,11.995c0,6.73,7.029,11.994,15.993,11.994
			c8.965,0,15.992-5.263,15.993-11.994C131.951,357.121,124.923,351.843,115.958,351.843z M115.958,367.836
			c-4.881,0-7.997-2.358-7.997-3.998c0-1.625,3.117-3.999,7.997-3.999s7.996,2.374,7.997,3.999
			C123.955,365.478,120.839,367.836,115.958,367.836z"/>
	</g>
</g>
<g>
	<g>
		<path d="M175.93,319.858c-8.965,0-15.993,5.279-15.993,11.994c0,6.731,7.029,11.995,15.993,11.995
			c8.965,0,15.993-5.264,15.993-11.995C191.923,325.137,184.895,319.858,175.93,319.858z M175.93,335.85
			c-4.881,0-7.997-2.357-7.997-3.998c0-1.624,3.117-3.998,7.997-3.998c4.881,0,7.997,2.374,7.997,3.998
			C183.927,333.493,180.811,335.85,175.93,335.85z"/>
	</g>
</g>
<g>
	<g>
		<path d="M215.912,319.858c-8.965,0-15.993,5.279-15.993,11.994c0,6.731,7.028,11.995,15.993,11.995
			c8.965,0,15.993-5.264,15.992-11.995C231.904,325.137,224.876,319.858,215.912,319.858z M215.912,335.85
			c-4.881,0-7.997-2.357-7.997-3.998c0-1.624,3.116-3.998,7.997-3.998s7.996,2.374,7.996,3.998
			C223.908,333.493,220.792,335.85,215.912,335.85z"/>
	</g>
</g>
<g>
	<g>
		<path d="M255.894,319.858c-8.965,0-15.993,5.279-15.993,11.994c0,6.731,7.028,11.995,15.993,11.995
			c8.965,0,15.992-5.264,15.992-11.995C271.886,325.137,264.859,319.858,255.894,319.858z M255.894,335.85
			c-4.881,0-7.996-2.357-7.996-3.998c0-1.624,3.115-3.998,7.996-3.998c4.881,0,7.996,2.374,7.996,3.998
			C263.89,333.493,260.775,335.85,255.894,335.85z"/>
	</g>
</g>
<g>
	<g>
		<path d="M295.875,319.858c-8.964,0-15.992,5.279-15.992,11.994c0,6.731,7.028,11.995,15.992,11.995
			c8.965,0,15.993-5.264,15.993-11.995C311.868,325.137,304.84,319.858,295.875,319.858z M295.875,335.85
			c-4.88,0-7.996-2.357-7.996-3.998c0-1.624,3.116-3.998,7.996-3.998c4.881,0,7.997,2.374,7.997,3.998
			C303.872,333.493,300.756,335.85,295.875,335.85z"/>
	</g>
</g>
<g>
	<g>
		<path d="M335.857,319.858c-8.964,0-15.992,5.279-15.992,11.994c0,6.731,7.028,11.995,15.992,11.995
			c8.965,0,15.993-5.264,15.993-11.995C351.85,325.137,344.822,319.858,335.857,319.858z M335.857,335.85
			c-4.88,0-7.996-2.357-7.996-3.998c0-1.624,3.116-3.998,7.996-3.998c4.881,0,7.997,2.374,7.997,3.998
			C343.854,333.493,340.738,335.85,335.857,335.85z"/>
	</g>
</g>
<g>
	<g>
		<path d="M375.839,319.858c-8.965,0-15.993,5.279-15.993,11.994c0,6.731,7.028,11.995,15.993,11.995
			c8.965,0,15.992-5.264,15.992-11.995C391.831,325.137,384.804,319.858,375.839,319.858z M375.839,335.85
			c-4.881,0-7.996-2.357-7.996-3.998c0-1.624,3.115-3.998,7.996-3.998c4.881,0,7.996,2.374,7.996,3.998
			C383.835,333.493,380.72,335.85,375.839,335.85z"/>
	</g>
</g>
<g>
	<g>
		<path d="M135.948,383.829c-8.964,0-15.992,5.279-15.992,11.994c0,6.731,7.028,11.995,15.992,11.995
			c8.965,0,15.994-5.264,15.993-11.995C151.941,389.108,144.913,383.829,135.948,383.829z M135.948,399.82
			c-4.88,0-7.996-2.357-7.996-3.998c0-1.624,3.116-3.998,7.996-3.998c4.881,0,7.997,2.374,7.997,3.998
			C143.945,397.463,140.829,399.82,135.948,399.82z"/>
	</g>
</g>
<g>
	<g>
		<path d="M175.93,383.829c-8.965,0-15.993,5.279-15.993,11.994c0,6.731,7.029,11.995,15.993,11.995
			c8.965,0,15.993-5.264,15.993-11.995C191.923,389.108,184.895,383.829,175.93,383.829z M175.93,399.82
			c-4.881,0-7.997-2.357-7.997-3.998c0-1.624,3.117-3.998,7.997-3.998c4.881,0,7.997,2.374,7.997,3.998
			C183.927,397.463,180.811,399.82,175.93,399.82z"/>
	</g>
</g>
<g>
	<g>
		<path d="M215.912,383.829c-8.965,0-15.993,5.279-15.993,11.994c0,6.731,7.028,11.995,15.993,11.995
			c8.965,0,15.993-5.264,15.992-11.995C231.904,389.108,224.876,383.829,215.912,383.829z M215.912,399.82
			c-4.881,0-7.997-2.357-7.997-3.998c0-1.624,3.116-3.998,7.997-3.998s7.996,2.374,7.996,3.998
			C223.908,397.463,220.792,399.82,215.912,399.82z"/>
	</g>
</g>
<g>
	<g>
		<path d="M255.894,383.829c-8.965,0-15.993,5.279-15.993,11.994c0,6.731,7.028,11.995,15.993,11.995
			c8.965,0,15.992-5.264,15.992-11.995C271.886,389.108,264.859,383.829,255.894,383.829z M255.894,399.82
			c-4.881,0-7.996-2.357-7.996-3.998c0-1.624,3.115-3.998,7.996-3.998c4.881,0,7.996,2.374,7.996,3.998
			C263.89,397.463,260.775,399.82,255.894,399.82z"/>
	</g>
</g>
<g>
	<g>
		<path d="M295.875,383.829c-8.964,0-15.992,5.279-15.992,11.994c0,6.731,7.028,11.995,15.992,11.995
			c8.965,0,15.993-5.264,15.993-11.995C311.868,389.108,304.84,383.829,295.875,383.829z M295.875,399.82
			c-4.88,0-7.996-2.357-7.996-3.998c0-1.624,3.116-3.998,7.996-3.998c4.881,0,7.997,2.374,7.997,3.998
			C303.872,397.463,300.756,399.82,295.875,399.82z"/>
	</g>
</g>
<g>
	<g>
		<path d="M335.857,383.829c-8.964,0-15.992,5.279-15.992,11.994c0,6.731,7.028,11.995,15.992,11.995
			c8.965,0,15.993-5.264,15.993-11.995C351.85,389.108,344.822,383.829,335.857,383.829z M335.857,399.82
			c-4.88,0-7.996-2.357-7.996-3.998c0-1.624,3.116-3.998,7.996-3.998c4.881,0,7.997,2.374,7.997,3.998
			C343.854,397.463,340.738,399.82,335.857,399.82z"/>
	</g>
</g>
<g>
	<g>
		<path d="M375.839,383.829c-8.965,0-15.993,5.279-15.993,11.994c0,6.731,7.028,11.995,15.993,11.995
			c8.965,0,15.992-5.264,15.992-11.995C391.831,389.108,384.804,383.829,375.839,383.829z M375.839,399.82
			c-4.881,0-7.996-2.357-7.996-3.998c0-1.624,3.115-3.998,7.996-3.998c4.881,0,7.996,2.374,7.996,3.998
			C383.835,397.463,380.72,399.82,375.839,399.82z"/>
	</g>
</g>
<g>
	<g>
		<path d="M335.856,415.814H175.93c-8.965,0-15.993,5.278-15.993,11.995c0,6.73,7.029,11.994,15.993,11.994h159.927
			c8.965,0,15.993-5.264,15.992-11.994C351.849,421.092,344.821,415.814,335.856,415.814z M335.856,431.807H175.93
			c-4.881,0-7.997-2.358-7.997-3.998c0-1.625,3.117-3.999,7.997-3.999h159.926c4.881,0,7.997,2.374,7.997,3.999
			C343.853,429.449,340.737,431.807,335.856,431.807z"/>
	</g>
</g>
<g>
	<g>
		<path d="M434.593,280.501c-0.555-0.358-14.079-8.621-54.756-8.621c-19.288,0-36.554,5.342-54.842,10.996
			c-20.656,6.387-42.013,12.993-69.102,12.993c-27.143,0-50.758-6.622-73.591-13.024c-20.116-5.639-39.115-10.965-58.348-10.965
			c-39.232,0-46.72,7.653-48.087,9.996c-1.109,1.905-0.593,4.545,1.32,5.653c1.897,1.093,4.217,0.656,5.333-1.265
			c0.055-0.063,6.326-6.388,41.435-6.388c18.132,0,36.616,5.185,56.185,10.667c23.364,6.559,47.517,13.322,75.754,13.322
			c28.292,0,51.226-7.09,71.459-13.351c17.695-5.467,34.406-10.636,52.484-10.636c37.49,0,50.196,7.215,50.508,7.402
			c1.851,1.14,4.31,0.609,5.49-1.265C437.014,284.156,436.46,281.689,434.593,280.501z"/>
	</g>
</g>
<g>
	<g>
		<path d="M427.816,463.791H83.972c-2.209,0-3.998,1.797-3.998,3.999c0,2.218,1.789,3.998,3.998,3.998h343.844
			c2.209,0,3.998-1.78,3.998-3.998C431.814,465.588,430.025,463.791,427.816,463.791z"/>
	</g>
</g>
<g>
	<g>
		<path d="M115.95,199.916H83.972c-6.841,0-11.995,8.597-11.995,19.991c0,11.393,5.155,19.991,11.995,19.991
			c2.21,0,3.999-1.788,3.999-3.997c0-2.21-1.789-3.999-3.999-3.999c-0.992,0-3.998-4.256-3.998-11.994
			c0-7.739,3.006-11.995,3.998-11.995h31.978c2.21,0,3.999-1.789,3.999-3.998C119.949,201.705,118.16,199.916,115.95,199.916z"/>
	</g>
</g>
<g>
	<g>
		<path d="M427.815,199.915h-23.989c-2.21,0-3.999,1.789-3.999,3.999c0,2.209,1.789,3.998,3.999,3.998h23.99
			c0.991,0,3.998,4.256,3.998,11.995c0,7.738-3.007,11.994-3.998,11.994c-2.211,0-3.999,1.789-3.999,3.999
			c0,2.209,1.788,3.998,3.999,3.998c6.84,0,11.994-8.597,11.993-19.992C439.809,208.513,434.655,199.915,427.815,199.915z"/>
	</g>
</g>
<g>
	<g>
		<path d="M75.976,215.91h-3.998c-2.21,0-3.998,1.788-3.998,3.998c0,2.21,1.788,3.998,3.998,3.998h3.998
			c2.21,0,3.999-1.788,3.999-3.998C79.975,217.698,78.186,215.91,75.976,215.91z"/>
	</g>
</g>
<g>
	<g>
		<path d="M439.81,215.91h-3.998c-2.21,0-3.998,1.788-3.998,3.998c0,2.21,1.788,3.998,3.998,3.998h3.998
			c2.21,0,3.998-1.788,3.998-3.998C443.808,217.698,442.02,215.91,439.81,215.91z"/>
	</g>
</g>
<g>
	<g>
		<path d="M283.881,235.9h-55.975c-2.21,0-3.998,1.788-3.998,3.998c0,2.21,1.788,3.999,3.998,3.999h55.975
			c2.21,0,3.998-1.789,3.998-3.999S286.091,235.9,283.881,235.9z"/>
	</g>
</g>
<g>
	<g>
		<path d="M131.95,23.997c-2.21,0-3.998,1.788-3.998,3.998v191.913c0,2.21,1.788,3.998,3.998,3.998c2.21,0,3.998-1.789,3.998-3.999
			V27.995C135.948,25.785,134.16,23.997,131.95,23.997z"/>
	</g>
</g>
<g>
	<g>
		<path d="M435.812,23.997c-2.21,0-3.998,1.788-3.998,3.998v7.996c0,2.21,1.788,3.998,3.998,3.998c2.21,0,3.998-1.788,3.998-3.998
			v-7.996C439.81,25.785,438.022,23.997,435.812,23.997z"/>
	</g>
</g>
<g>
	<g>
		<path d="M387.833,23.997c-2.21,0-3.998,1.788-3.998,3.998v191.913c0,2.21,1.788,3.998,3.998,3.998s3.998-1.789,3.998-3.999V27.995
			C391.831,25.785,390.043,23.997,387.833,23.997z"/>
	</g>
</g>
<g>
	<g>
		<path d="M411.823,0.008H155.94c-2.21,0-3.998,1.788-3.998,3.998c0,2.21,1.788,3.998,3.998,3.998h255.883
			c2.209,0,3.998-1.788,3.998-3.998C415.821,1.796,414.033,0.008,411.823,0.008z"/>
	</g>
</g>
<g>
	<g>
		<path d="M435.811,31.993h-31.985c-2.21,0-3.999,1.788-3.999,3.998c0,2.21,1.789,3.998,3.999,3.998h31.986
			c2.21,0,3.997-1.788,3.997-3.998C439.809,33.781,438.021,31.993,435.811,31.993z"/>
	</g>
</g>
<g>
	<g>
		<path d="M155.939,0c-15.43,0-27.987,12.557-27.987,27.995c0,2.21,1.788,3.998,3.998,3.998c2.21,0,3.998-1.788,3.998-3.998
			c0-11.026,8.965-19.999,19.991-19.999c2.21,0,3.998-1.788,3.998-3.998C159.937,1.788,158.149,0,155.939,0z"/>
	</g>
</g>
<g>
	<g>
		<path d="M411.822,0c-15.43,0-27.987,12.557-27.987,27.995c0,2.21,1.788,3.998,3.998,3.998s3.998-1.788,3.998-3.998
			c0-11.026,8.965-19.999,19.991-19.999c2.21,0,3.998-1.788,3.998-3.998C415.82,1.788,414.032,0,411.822,0z"/>
	</g>
</g>
<g>
	<g>
		<path d="M411.823,0c-2.21,0-3.998,1.788-3.998,3.998c0,2.21,1.788,3.998,3.998,3.998c11.026,0,19.991,8.973,19.991,19.999
			c0,2.21,1.788,3.998,3.998,3.998c2.21,0,3.998-1.788,3.998-3.998C439.81,12.557,427.254,0,411.823,0z"/>
	</g>
</g>
<g>
	<g>
		<path d="M347.851,47.986H171.932c-2.21,0-3.999,1.789-3.999,3.998c0,2.21,1.789,3.999,3.999,3.999h175.92
			c2.21,0,3.998-1.789,3.997-3.999C351.849,49.775,350.061,47.986,347.851,47.986z"/>
	</g>
</g>
<g>
	<g>
		<path d="M347.851,79.971H171.932c-2.21,0-3.999,1.789-3.999,3.998c0,2.21,1.789,3.999,3.999,3.999h175.92
			c2.21,0,3.998-1.789,3.997-3.999C351.849,81.76,350.061,79.971,347.851,79.971z"/>
	</g>
</g>
<g>
	<g>
		<path d="M347.851,111.956H171.932c-2.21,0-3.999,1.789-3.999,3.998c0,2.21,1.789,3.999,3.999,3.999h175.92
			c2.21,0,3.998-1.788,3.997-3.999C351.849,113.745,350.061,111.956,347.851,111.956z"/>
	</g>
</g>
<g>
	<g>
		<path d="M347.851,143.942H171.932c-2.21,0-3.999,1.789-3.999,3.999c0,2.209,1.789,3.998,3.999,3.998h175.92
			c2.21,0,3.998-1.789,3.997-3.998C351.849,145.731,350.061,143.942,347.851,143.942z"/>
	</g>
</g>
<g>
	<g>
		<path d="M259.892,175.927h-87.959c-2.21,0-3.999,1.789-3.999,3.999c0,2.209,1.789,3.998,3.999,3.998h87.959
			c2.21,0,3.998-1.789,3.998-3.998C263.89,177.716,262.102,175.927,259.892,175.927z"/>
	</g>
</g>
<g>
	<g>
		<path d="M459.753,447.799c-2.209,0-3.998,1.796-3.998,3.998v23.989c0,2.218,1.789,3.998,3.998,3.998
			c2.211,0,3.998-1.78,3.998-3.998v-23.989C463.751,449.595,461.964,447.799,459.753,447.799z"/>
	</g>
</g>
<g>
	<g>
		<path d="M52.018,447.799c-2.21,0-3.998,1.796-3.998,3.998v23.989c0,2.218,1.788,3.998,3.998,3.998c2.21,0,3.999-1.78,3.999-3.998
			v-23.989C56.017,449.595,54.228,447.799,52.018,447.799z"/>
	</g>
</g>
<g>
</g>
<g>
</g>
<g>
</g>
<g>
</g>
<g>
</g>
<g>
</g>
<g>
</g>
<g>
</g>
<g>
</g>
<g>
</g>
<g>
</g>
<g>
</g>
<g>
</g>
<g>
</g>
<g>
</g>
</svg>
